<svg width="209" height="54" viewBox="0 0 209 54" fill="none" xmlns="http://www.w3.org/2000/svg">
<mask id="path-1-outside-1_176_2" maskUnits="userSpaceOnUse" x="0" y="0" width="209" height="54" fill="black">
<rect fill="white" width="209" height="54"/>
<path d="M12.664 47.768V42.008H6.84V6.616H13.304V18.2H30.712V24.024H36.6V42.008H30.712V47.768H12.664ZM13.304 41.368H30.072V24.6H13.304V41.368ZM44.34 47.768V18.2H50.804V47.768H44.34ZM44.34 13.08V6.616H50.804V13.08H44.34ZM68.174 47.768V42.008H62.414V24.6H56.59V18.2H62.414V6.616H68.814V18.2H86.35V24.6H68.814V41.368H85.71V35.544H92.174V42.008H86.35V47.768H68.174ZM98.6525 47.768V6.616H105.117V24.024H110.237V18.2H122.525V24.024H128.413V47.768H121.885V24.6H110.877V30.36H105.117V47.768H98.6525ZM140.727 47.768V42.008H134.903V18.2H141.367V41.368H158.135V18.2H164.663V42.008H158.775V47.768H140.727ZM178.227 47.768V42.008H172.403V6.616H178.867V18.2H196.275V24.024H202.163V42.008H196.275V47.768H178.227ZM178.867 41.368H195.635V24.6H178.867V41.368Z"/>
</mask>
<path d="M12.664 47.768V42.008H6.84V6.616H13.304V18.2H30.712V24.024H36.6V42.008H30.712V47.768H12.664ZM13.304 41.368H30.072V24.6H13.304V41.368ZM44.34 47.768V18.2H50.804V47.768H44.34ZM44.34 13.08V6.616H50.804V13.08H44.34ZM68.174 47.768V42.008H62.414V24.6H56.59V18.2H62.414V6.616H68.814V18.2H86.35V24.6H68.814V41.368H85.71V35.544H92.174V42.008H86.35V47.768H68.174ZM98.6525 47.768V6.616H105.117V24.024H110.237V18.2H122.525V24.024H128.413V47.768H121.885V24.6H110.877V30.36H105.117V47.768H98.6525ZM140.727 47.768V42.008H134.903V18.2H141.367V41.368H158.135V18.2H164.663V42.008H158.775V47.768H140.727ZM178.227 47.768V42.008H172.403V6.616H178.867V18.2H196.275V24.024H202.163V42.008H196.275V47.768H178.227ZM178.867 41.368H195.635V24.6H178.867V41.368Z" fill="white"/>
<path d="M12.664 47.768H6.664V53.768H12.664V47.768ZM12.664 42.008H18.664V36.008H12.664V42.008ZM6.84 42.008H0.84V48.008H6.84V42.008ZM6.84 6.616V0.615997H0.84V6.616H6.84ZM13.304 6.616H19.304V0.615997H13.304V6.616ZM13.304 18.2H7.304V24.2H13.304V18.2ZM30.712 18.2H36.712V12.2H30.712V18.2ZM30.712 24.024H24.712V30.024H30.712V24.024ZM36.6 24.024H42.6V18.024H36.6V24.024ZM36.6 42.008V48.008H42.6V42.008H36.6ZM30.712 42.008V36.008H24.712V42.008H30.712ZM30.712 47.768V53.768H36.712V47.768H30.712ZM13.304 41.368H7.304V47.368H13.304V41.368ZM30.072 41.368V47.368H36.072V41.368H30.072ZM30.072 24.6H36.072V18.6H30.072V24.6ZM13.304 24.6V18.6H7.304V24.6H13.304ZM12.664 47.768H18.664V42.008H12.664H6.664V47.768H12.664ZM12.664 42.008V36.008H6.84V42.008V48.008H12.664V42.008ZM6.84 42.008H12.84V6.616H6.84H0.84V42.008H6.84ZM6.84 6.616V12.616H13.304V6.616V0.615997H6.84V6.616ZM13.304 6.616H7.304V18.2H13.304H19.304V6.616H13.304ZM13.304 18.2V24.2H30.712V18.2V12.2H13.304V18.2ZM30.712 18.2H24.712V24.024H30.712H36.712V18.2H30.712ZM30.712 24.024V30.024H36.6V24.024V18.024H30.712V24.024ZM36.6 24.024H30.6V42.008H36.6H42.6V24.024H36.6ZM36.6 42.008V36.008H30.712V42.008V48.008H36.6V42.008ZM30.712 42.008H24.712V47.768H30.712H36.712V42.008H30.712ZM30.712 47.768V41.768H12.664V47.768V53.768H30.712V47.768ZM13.304 41.368V47.368H30.072V41.368V35.368H13.304V41.368ZM30.072 41.368H36.072V24.6H30.072H24.072V41.368H30.072ZM30.072 24.6V18.6H13.304V24.6V30.6H30.072V24.6ZM13.304 24.6H7.304V41.368H13.304H19.304V24.6H13.304ZM44.34 47.768H38.34V53.768H44.34V47.768ZM44.34 18.2V12.2H38.34V18.2H44.34ZM50.804 18.2H56.804V12.2H50.804V18.2ZM50.804 47.768V53.768H56.804V47.768H50.804ZM44.34 13.08H38.34V19.08H44.34V13.08ZM44.34 6.616V0.615997H38.34V6.616H44.34ZM50.804 6.616H56.804V0.615997H50.804V6.616ZM50.804 13.08V19.08H56.804V13.08H50.804ZM44.34 47.768H50.34V18.2H44.34H38.34V47.768H44.34ZM44.34 18.2V24.2H50.804V18.2V12.2H44.34V18.2ZM50.804 18.2H44.804V47.768H50.804H56.804V18.2H50.804ZM50.804 47.768V41.768H44.34V47.768V53.768H50.804V47.768ZM44.34 13.08H50.34V6.616H44.34H38.34V13.08H44.34ZM44.34 6.616V12.616H50.804V6.616V0.615997H44.34V6.616ZM50.804 6.616H44.804V13.08H50.804H56.804V6.616H50.804ZM50.804 13.08V7.08H44.34V13.08V19.08H50.804V13.08ZM68.174 47.768H62.174V53.768H68.174V47.768ZM68.174 42.008H74.174V36.008H68.174V42.008ZM62.414 42.008H56.414V48.008H62.414V42.008ZM62.414 24.6H68.414V18.6H62.414V24.6ZM56.59 24.6H50.59V30.6H56.59V24.6ZM56.59 18.2V12.2H50.59V18.2H56.59ZM62.414 18.2V24.2H68.414V18.2H62.414ZM62.414 6.616V0.615997H56.414V6.616H62.414ZM68.814 6.616H74.814V0.615997H68.814V6.616ZM68.814 18.2H62.814V24.2H68.814V18.2ZM86.35 18.2H92.35V12.2H86.35V18.2ZM86.35 24.6V30.6H92.35V24.6H86.35ZM68.814 24.6V18.6H62.814V24.6H68.814ZM68.814 41.368H62.814V47.368H68.814V41.368ZM85.71 41.368V47.368H91.71V41.368H85.71ZM85.71 35.544V29.544H79.71V35.544H85.71ZM92.174 35.544H98.174V29.544H92.174V35.544ZM92.174 42.008V48.008H98.174V42.008H92.174ZM86.35 42.008V36.008H80.35V42.008H86.35ZM86.35 47.768V53.768H92.35V47.768H86.35ZM68.174 47.768H74.174V42.008H68.174H62.174V47.768H68.174ZM68.174 42.008V36.008H62.414V42.008V48.008H68.174V42.008ZM62.414 42.008H68.414V24.6H62.414H56.414V42.008H62.414ZM62.414 24.6V18.6H56.59V24.6V30.6H62.414V24.6ZM56.59 24.6H62.59V18.2H56.59H50.59V24.6H56.59ZM56.59 18.2V24.2H62.414V18.2V12.2H56.59V18.2ZM62.414 18.2H68.414V6.616H62.414H56.414V18.2H62.414ZM62.414 6.616V12.616H68.814V6.616V0.615997H62.414V6.616ZM68.814 6.616H62.814V18.2H68.814H74.814V6.616H68.814ZM68.814 18.2V24.2H86.35V18.2V12.2H68.814V18.2ZM86.35 18.2H80.35V24.6H86.35H92.35V18.2H86.35ZM86.35 24.6V18.6H68.814V24.6V30.6H86.35V24.6ZM68.814 24.6H62.814V41.368H68.814H74.814V24.6H68.814ZM68.814 41.368V47.368H85.71V41.368V35.368H68.814V41.368ZM85.71 41.368H91.71V35.544H85.71H79.71V41.368H85.71ZM85.71 35.544V41.544H92.174V35.544V29.544H85.71V35.544ZM92.174 35.544H86.174V42.008H92.174H98.174V35.544H92.174ZM92.174 42.008V36.008H86.35V42.008V48.008H92.174V42.008ZM86.35 42.008H80.35V47.768H86.35H92.35V42.008H86.35ZM86.35 47.768V41.768H68.174V47.768V53.768H86.35V47.768ZM98.6525 47.768H92.6525V53.768H98.6525V47.768ZM98.6525 6.616V0.615997H92.6525V6.616H98.6525ZM105.117 6.616H111.117V0.615997H105.117V6.616ZM105.117 24.024H99.1165V30.024H105.117V24.024ZM110.237 24.024V30.024H116.237V24.024H110.237ZM110.237 18.2V12.2H104.237V18.2H110.237ZM122.525 18.2H128.525V12.2H122.525V18.2ZM122.525 24.024H116.525V30.024H122.525V24.024ZM128.413 24.024H134.413V18.024H128.413V24.024ZM128.413 47.768V53.768H134.413V47.768H128.413ZM121.885 47.768H115.885V53.768H121.885V47.768ZM121.885 24.6H127.885V18.6H121.885V24.6ZM110.877 24.6V18.6H104.877V24.6H110.877ZM110.877 30.36V36.36H116.877V30.36H110.877ZM105.117 30.36V24.36H99.1165V30.36H105.117ZM105.117 47.768V53.768H111.117V47.768H105.117ZM98.6525 47.768H104.653V6.616H98.6525H92.6525V47.768H98.6525ZM98.6525 6.616V12.616H105.117V6.616V0.615997H98.6525V6.616ZM105.117 6.616H99.1165V24.024H105.117H111.117V6.616H105.117ZM105.117 24.024V30.024H110.237V24.024V18.024H105.117V24.024ZM110.237 24.024H116.237V18.2H110.237H104.237V24.024H110.237ZM110.237 18.2V24.2H122.525V18.2V12.2H110.237V18.2ZM122.525 18.2H116.525V24.024H122.525H128.525V18.2H122.525ZM122.525 24.024V30.024H128.413V24.024V18.024H122.525V24.024ZM128.413 24.024H122.413V47.768H128.413H134.413V24.024H128.413ZM128.413 47.768V41.768H121.885V47.768V53.768H128.413V47.768ZM121.885 47.768H127.885V24.6H121.885H115.885V47.768H121.885ZM121.885 24.6V18.6H110.877V24.6V30.6H121.885V24.6ZM110.877 24.6H104.877V30.36H110.877H116.877V24.6H110.877ZM110.877 30.36V24.36H105.117V30.36V36.36H110.877V30.36ZM105.117 30.36H99.1165V47.768H105.117H111.117V30.36H105.117ZM105.117 47.768V41.768H98.6525V47.768V53.768H105.117V47.768ZM140.727 47.768H134.727V53.768H140.727V47.768ZM140.727 42.008H146.727V36.008H140.727V42.008ZM134.903 42.008H128.903V48.008H134.903V42.008ZM134.903 18.2V12.2H128.903V18.2H134.903ZM141.367 18.2H147.367V12.2H141.367V18.2ZM141.367 41.368H135.367V47.368H141.367V41.368ZM158.135 41.368V47.368H164.135V41.368H158.135ZM158.135 18.2V12.2H152.135V18.2H158.135ZM164.663 18.2H170.663V12.2H164.663V18.2ZM164.663 42.008V48.008H170.663V42.008H164.663ZM158.775 42.008V36.008H152.775V42.008H158.775ZM158.775 47.768V53.768H164.775V47.768H158.775ZM140.727 47.768H146.727V42.008H140.727H134.727V47.768H140.727ZM140.727 42.008V36.008H134.903V42.008V48.008H140.727V42.008ZM134.903 42.008H140.903V18.2H134.903H128.903V42.008H134.903ZM134.903 18.2V24.2H141.367V18.2V12.2H134.903V18.2ZM141.367 18.2H135.367V41.368H141.367H147.367V18.2H141.367ZM141.367 41.368V47.368H158.135V41.368V35.368H141.367V41.368ZM158.135 41.368H164.135V18.2H158.135H152.135V41.368H158.135ZM158.135 18.2V24.2H164.663V18.2V12.2H158.135V18.2ZM164.663 18.2H158.663V42.008H164.663H170.663V18.2H164.663ZM164.663 42.008V36.008H158.775V42.008V48.008H164.663V42.008ZM158.775 42.008H152.775V47.768H158.775H164.775V42.008H158.775ZM158.775 47.768V41.768H140.727V47.768V53.768H158.775V47.768ZM178.227 47.768H172.227V53.768H178.227V47.768ZM178.227 42.008H184.227V36.008H178.227V42.008ZM172.403 42.008H166.403V48.008H172.403V42.008ZM172.403 6.616V0.615997H166.403V6.616H172.403ZM178.867 6.616H184.867V0.615997H178.867V6.616ZM178.867 18.2H172.867V24.2H178.867V18.2ZM196.275 18.2H202.275V12.2H196.275V18.2ZM196.275 24.024H190.275V30.024H196.275V24.024ZM202.163 24.024H208.163V18.024H202.163V24.024ZM202.163 42.008V48.008H208.163V42.008H202.163ZM196.275 42.008V36.008H190.275V42.008H196.275ZM196.275 47.768V53.768H202.275V47.768H196.275ZM178.867 41.368H172.867V47.368H178.867V41.368ZM195.635 41.368V47.368H201.635V41.368H195.635ZM195.635 24.6H201.635V18.6H195.635V24.6ZM178.867 24.6V18.6H172.867V24.6H178.867ZM178.227 47.768H184.227V42.008H178.227H172.227V47.768H178.227ZM178.227 42.008V36.008H172.403V42.008V48.008H178.227V42.008ZM172.403 42.008H178.403V6.616H172.403H166.403V42.008H172.403ZM172.403 6.616V12.616H178.867V6.616V0.615997H172.403V6.616ZM178.867 6.616H172.867V18.2H178.867H184.867V6.616H178.867ZM178.867 18.2V24.2H196.275V18.2V12.2H178.867V18.2ZM196.275 18.2H190.275V24.024H196.275H202.275V18.2H196.275ZM196.275 24.024V30.024H202.163V24.024V18.024H196.275V24.024ZM202.163 24.024H196.163V42.008H202.163H208.163V24.024H202.163ZM202.163 42.008V36.008H196.275V42.008V48.008H202.163V42.008ZM196.275 42.008H190.275V47.768H196.275H202.275V42.008H196.275ZM196.275 47.768V41.768H178.227V47.768V53.768H196.275V47.768ZM178.867 41.368V47.368H195.635V41.368V35.368H178.867V41.368ZM195.635 41.368H201.635V24.6H195.635H189.635V41.368H195.635ZM195.635 24.6V18.6H178.867V24.6V30.6H195.635V24.6ZM178.867 24.6H172.867V41.368H178.867H184.867V24.6H178.867Z" fill="black" mask="url(#path-1-outside-1_176_2)"/>
</svg>
