<svg width="92" height="44" viewBox="0 0 92 44" fill="none" xmlns="http://www.w3.org/2000/svg">
<mask id="path-1-outside-1_176_3" maskUnits="userSpaceOnUse" x="0" y="0" width="92" height="44" fill="black">
<rect fill="white" width="92" height="44"/>
<path d="M11.248 37.576V33.256H6.88V6.712H11.728V15.4H24.784V19.768H29.2V33.256H24.784V37.576H11.248ZM11.728 32.776H24.304V20.2H11.728V32.776ZM35.005 37.576V6.712H39.853V19.768H43.693V15.4H52.909V19.768H57.325V37.576H52.429V20.2H44.173V24.52H39.853V37.576H35.005ZM67.498 37.576V33.256H63.13V6.712H67.978V15.4H81.034V19.768H85.45V33.256H81.034V37.576H67.498ZM67.978 32.776H80.554V20.2H67.978V32.776Z"/>
</mask>
<path d="M11.248 37.576V33.256H6.88V6.712H11.728V15.4H24.784V19.768H29.2V33.256H24.784V37.576H11.248ZM11.728 32.776H24.304V20.2H11.728V32.776ZM35.005 37.576V6.712H39.853V19.768H43.693V15.4H52.909V19.768H57.325V37.576H52.429V20.2H44.173V24.52H39.853V37.576H35.005ZM67.498 37.576V33.256H63.13V6.712H67.978V15.4H81.034V19.768H85.45V33.256H81.034V37.576H67.498ZM67.978 32.776H80.554V20.2H67.978V32.776Z" fill="white"/>
<path d="M11.248 37.576H5.248V43.576H11.248V37.576ZM11.248 33.256H17.248V27.256H11.248V33.256ZM6.88 33.256H0.88V39.256H6.88V33.256ZM6.88 6.712V0.711998H0.88V6.712H6.88ZM11.728 6.712H17.728V0.711998H11.728V6.712ZM11.728 15.4H5.728V21.4H11.728V15.4ZM24.784 15.4H30.784V9.4H24.784V15.4ZM24.784 19.768H18.784V25.768H24.784V19.768ZM29.2 19.768H35.2V13.768H29.2V19.768ZM29.2 33.256V39.256H35.2V33.256H29.2ZM24.784 33.256V27.256H18.784V33.256H24.784ZM24.784 37.576V43.576H30.784V37.576H24.784ZM11.728 32.776H5.728V38.776H11.728V32.776ZM24.304 32.776V38.776H30.304V32.776H24.304ZM24.304 20.2H30.304V14.2H24.304V20.2ZM11.728 20.2V14.2H5.728V20.2H11.728ZM11.248 37.576H17.248V33.256H11.248H5.248V37.576H11.248ZM11.248 33.256V27.256H6.88V33.256V39.256H11.248V33.256ZM6.88 33.256H12.88V6.712H6.88H0.88V33.256H6.88ZM6.88 6.712V12.712H11.728V6.712V0.711998H6.88V6.712ZM11.728 6.712H5.728V15.4H11.728H17.728V6.712H11.728ZM11.728 15.4V21.4H24.784V15.4V9.4H11.728V15.4ZM24.784 15.4H18.784V19.768H24.784H30.784V15.4H24.784ZM24.784 19.768V25.768H29.2V19.768V13.768H24.784V19.768ZM29.2 19.768H23.2V33.256H29.2H35.2V19.768H29.2ZM29.2 33.256V27.256H24.784V33.256V39.256H29.2V33.256ZM24.784 33.256H18.784V37.576H24.784H30.784V33.256H24.784ZM24.784 37.576V31.576H11.248V37.576V43.576H24.784V37.576ZM11.728 32.776V38.776H24.304V32.776V26.776H11.728V32.776ZM24.304 32.776H30.304V20.2H24.304H18.304V32.776H24.304ZM24.304 20.2V14.2H11.728V20.2V26.2H24.304V20.2ZM11.728 20.2H5.728V32.776H11.728H17.728V20.2H11.728ZM35.005 37.576H29.005V43.576H35.005V37.576ZM35.005 6.712V0.711998H29.005V6.712H35.005ZM39.853 6.712H45.853V0.711998H39.853V6.712ZM39.853 19.768H33.853V25.768H39.853V19.768ZM43.693 19.768V25.768H49.693V19.768H43.693ZM43.693 15.4V9.4H37.693V15.4H43.693ZM52.909 15.4H58.909V9.4H52.909V15.4ZM52.909 19.768H46.909V25.768H52.909V19.768ZM57.325 19.768H63.325V13.768H57.325V19.768ZM57.325 37.576V43.576H63.325V37.576H57.325ZM52.429 37.576H46.429V43.576H52.429V37.576ZM52.429 20.2H58.429V14.2H52.429V20.2ZM44.173 20.2V14.2H38.173V20.2H44.173ZM44.173 24.52V30.52H50.173V24.52H44.173ZM39.853 24.52V18.52H33.853V24.52H39.853ZM39.853 37.576V43.576H45.853V37.576H39.853ZM35.005 37.576H41.005V6.712H35.005H29.005V37.576H35.005ZM35.005 6.712V12.712H39.853V6.712V0.711998H35.005V6.712ZM39.853 6.712H33.853V19.768H39.853H45.853V6.712H39.853ZM39.853 19.768V25.768H43.693V19.768V13.768H39.853V19.768ZM43.693 19.768H49.693V15.4H43.693H37.693V19.768H43.693ZM43.693 15.4V21.4H52.909V15.4V9.4H43.693V15.4ZM52.909 15.4H46.909V19.768H52.909H58.909V15.4H52.909ZM52.909 19.768V25.768H57.325V19.768V13.768H52.909V19.768ZM57.325 19.768H51.325V37.576H57.325H63.325V19.768H57.325ZM57.325 37.576V31.576H52.429V37.576V43.576H57.325V37.576ZM52.429 37.576H58.429V20.2H52.429H46.429V37.576H52.429ZM52.429 20.2V14.2H44.173V20.2V26.2H52.429V20.2ZM44.173 20.2H38.173V24.52H44.173H50.173V20.2H44.173ZM44.173 24.52V18.52H39.853V24.52V30.52H44.173V24.52ZM39.853 24.52H33.853V37.576H39.853H45.853V24.52H39.853ZM39.853 37.576V31.576H35.005V37.576V43.576H39.853V37.576ZM67.498 37.576H61.498V43.576H67.498V37.576ZM67.498 33.256H73.498V27.256H67.498V33.256ZM63.13 33.256H57.13V39.256H63.13V33.256ZM63.13 6.712V0.711998H57.13V6.712H63.13ZM67.978 6.712H73.978V0.711998H67.978V6.712ZM67.978 15.4H61.978V21.4H67.978V15.4ZM81.034 15.4H87.034V9.4H81.034V15.4ZM81.034 19.768H75.034V25.768H81.034V19.768ZM85.45 19.768H91.45V13.768H85.45V19.768ZM85.45 33.256V39.256H91.45V33.256H85.45ZM81.034 33.256V27.256H75.034V33.256H81.034ZM81.034 37.576V43.576H87.034V37.576H81.034ZM67.978 32.776H61.978V38.776H67.978V32.776ZM80.554 32.776V38.776H86.554V32.776H80.554ZM80.554 20.2H86.554V14.2H80.554V20.2ZM67.978 20.2V14.2H61.978V20.2H67.978ZM67.498 37.576H73.498V33.256H67.498H61.498V37.576H67.498ZM67.498 33.256V27.256H63.13V33.256V39.256H67.498V33.256ZM63.13 33.256H69.13V6.712H63.13H57.13V33.256H63.13ZM63.13 6.712V12.712H67.978V6.712V0.711998H63.13V6.712ZM67.978 6.712H61.978V15.4H67.978H73.978V6.712H67.978ZM67.978 15.4V21.4H81.034V15.4V9.4H67.978V15.4ZM81.034 15.4H75.034V19.768H81.034H87.034V15.4H81.034ZM81.034 19.768V25.768H85.45V19.768V13.768H81.034V19.768ZM85.45 19.768H79.45V33.256H85.45H91.45V19.768H85.45ZM85.45 33.256V27.256H81.034V33.256V39.256H85.45V33.256ZM81.034 33.256H75.034V37.576H81.034H87.034V33.256H81.034ZM81.034 37.576V31.576H67.498V37.576V43.576H81.034V37.576ZM67.978 32.776V38.776H80.554V32.776V26.776H67.978V32.776ZM80.554 32.776H86.554V20.2H80.554H74.554V32.776H80.554ZM80.554 20.2V14.2H67.978V20.2V26.2H80.554V20.2ZM67.978 20.2H61.978V32.776H67.978H73.978V20.2H67.978Z" fill="#0D0000" mask="url(#path-1-outside-1_176_3)"/>
</svg>
